<svg width="156" height="149" viewBox="0 0 156 149" fill="none" xmlns="http://www.w3.org/2000/svg">
<path d="M37 148.12L79.7931 74" stroke="black" stroke-width="3"/>
<ellipse cx="79.2067" cy="74.5538" rx="67.5" ry="35.5" transform="rotate(30 79.2067 74.5538)" fill="#E4F0D9"/>
<path d="M139.417 104.219C137.805 109.629 134.02 113.882 128.365 116.64C122.71 119.398 115.342 120.584 106.849 120.103L79.2067 74.5538L139.417 104.219Z" fill="#80BD95" stroke="black"/>
<path d="M121.897 4.31021e-06L106.932 8.72103L121.967 17.3204L121.897 4.31021e-06ZM80.3021 75.7447L116.496 12.4634L113.892 10.9739L77.6979 74.2553L80.3021 75.7447Z" fill="black"/>
<path d="M110.003 99.9176V101.324H103.764V99.9176H110.003ZM110.923 99.7642V101.324C110.923 102.662 110.757 103.763 110.425 104.629C110.092 105.494 109.624 106.135 109.018 106.553C108.413 106.97 107.702 107.179 106.884 107.179C106.065 107.179 105.349 106.97 104.736 106.553C104.122 106.135 103.645 105.494 103.304 104.629C102.963 103.763 102.793 102.662 102.793 101.324V99.7642C102.793 98.4347 102.961 97.3459 103.298 96.4979C103.634 95.6499 104.107 95.0234 104.717 94.6186C105.326 94.2138 106.04 94.0114 106.858 94.0114C107.685 94.0114 108.403 94.2138 109.012 94.6186C109.621 95.0234 110.092 95.6499 110.425 96.4979C110.757 97.3459 110.923 98.4347 110.923 99.7642ZM109.389 101.605V99.483C109.389 98.6051 109.283 97.8594 109.07 97.2457C108.857 96.6321 108.56 96.1655 108.181 95.8459C107.802 95.5263 107.361 95.3665 106.858 95.3665C106.116 95.3665 105.505 95.7244 105.023 96.4403C104.542 97.152 104.301 98.1662 104.301 99.483V101.605C104.301 102.922 104.546 103.955 105.036 104.705C105.526 105.451 106.142 105.824 106.884 105.824C107.386 105.824 107.825 105.656 108.2 105.319C108.575 104.982 108.867 104.499 109.076 103.868C109.285 103.237 109.389 102.483 109.389 101.605Z" fill="black"/>
<path d="M9.40909 8.18182L5.77841 18H4.24432L0.613636 8.18182H2.25L4.96023 16.0057H5.0625L7.77273 8.18182H9.40909ZM15.1651 18.2045C14.2191 18.2045 13.4031 17.9957 12.717 17.5781C12.0352 17.1562 11.5089 16.5682 11.1381 15.8139C10.7717 15.0554 10.5884 14.1733 10.5884 13.1676C10.5884 12.1619 10.7717 11.2756 11.1381 10.5085C11.5089 9.73722 12.0245 9.13636 12.685 8.70597C13.3498 8.27131 14.1254 8.05398 15.0117 8.05398C15.5231 8.05398 16.0281 8.1392 16.5266 8.30966C17.0252 8.48011 17.479 8.7571 17.8881 9.14062C18.2972 9.51989 18.6232 10.0227 18.8661 10.6491C19.109 11.2756 19.2305 12.0469 19.2305 12.9631V13.6023H11.6623V12.2983H17.6964C17.6964 11.7443 17.5856 11.25 17.364 10.8153C17.1467 10.3807 16.8356 10.0376 16.4308 9.78622C16.0302 9.5348 15.5572 9.40909 15.0117 9.40909C14.4109 9.40909 13.891 9.55824 13.4521 9.85653C13.0174 10.1506 12.6829 10.5341 12.4485 11.0071C12.2141 11.4801 12.0969 11.9872 12.0969 12.5284V13.3977C12.0969 14.1392 12.2248 14.7678 12.4805 15.2834C12.7404 15.7947 13.1005 16.1847 13.5607 16.4531C14.021 16.7173 14.5558 16.8494 15.1651 16.8494C15.5614 16.8494 15.9194 16.794 16.239 16.6832C16.5629 16.5682 16.842 16.3977 17.0763 16.1719C17.3107 15.9418 17.4918 15.6562 17.6197 15.3153L19.0771 15.7244C18.9237 16.2188 18.6658 16.6534 18.3036 17.0284C17.9414 17.3991 17.494 17.6889 16.9613 17.8977C16.4286 18.1023 15.8299 18.2045 15.1651 18.2045ZM25.5138 18.2045C24.5934 18.2045 23.8008 17.9872 23.136 17.5526C22.4712 17.1179 21.9599 16.5192 21.6019 15.7564C21.244 14.9936 21.065 14.1222 21.065 13.142C21.065 12.1449 21.2482 11.2649 21.6147 10.5021C21.9854 9.73509 22.5011 9.13636 23.1616 8.70597C23.8263 8.27131 24.6019 8.05398 25.4883 8.05398C26.1786 8.05398 26.8008 8.18182 27.3548 8.4375C27.9087 8.69318 28.3626 9.05114 28.7163 9.51136C29.07 9.97159 29.2894 10.5085 29.3746 11.1222H27.8661C27.7511 10.6747 27.4954 10.2784 27.0991 9.93324C26.707 9.58381 26.1786 9.40909 25.5138 9.40909C24.9258 9.40909 24.4102 9.5625 23.967 9.86932C23.5281 10.1719 23.185 10.6001 22.9379 11.1541C22.695 11.7038 22.5735 12.3494 22.5735 13.0909C22.5735 13.8494 22.6928 14.5099 22.9315 15.0724C23.1744 15.6349 23.5153 16.0717 23.9542 16.3828C24.3974 16.6939 24.9173 16.8494 25.5138 16.8494C25.9059 16.8494 26.2617 16.7812 26.5813 16.6449C26.9009 16.5085 27.1715 16.3125 27.3931 16.0568C27.6147 15.8011 27.7724 15.4943 27.8661 15.1364H29.3746C29.2894 15.7159 29.0785 16.2379 28.7418 16.7024C28.4094 17.1626 27.9684 17.5291 27.4187 17.8018C26.8732 18.0703 26.2383 18.2045 25.5138 18.2045ZM32.1935 11.6847V10.304H40.0685V11.6847H32.1935ZM32.1935 15.4688V14.0881H40.0685V15.4688H32.1935ZM43.9821 12.4773C43.9821 10.8665 44.1909 9.38565 44.6085 8.0348C45.0304 6.67969 45.6312 5.43324 46.411 4.29545H47.7406C47.4338 4.71733 47.1461 5.23722 46.8777 5.85511C46.6135 6.46875 46.3812 7.14418 46.1809 7.88139C45.9806 8.61435 45.823 9.37287 45.7079 10.157C45.5971 10.9411 45.5417 11.7145 45.5417 12.4773C45.5417 13.4915 45.6397 14.5206 45.8358 15.5646C46.0318 16.6087 46.296 17.5781 46.6284 18.473C46.9608 19.3679 47.3315 20.0966 47.7406 20.6591H46.411C45.6312 19.5213 45.0304 18.277 44.6085 16.9261C44.1909 15.571 43.9821 14.0881 43.9821 12.4773ZM51.0916 8.18182L53.4439 12.196L55.7962 8.18182H57.5348L54.3643 13.0909L57.5348 18H55.7962L53.4439 14.1903L51.0916 18H49.353L52.4723 13.0909L49.353 8.18182H51.0916ZM61.9373 16.2102L61.835 16.9006C61.7626 17.3864 61.6518 17.9062 61.5027 18.4602C61.3578 19.0142 61.2065 19.5362 61.0488 20.0263C60.8912 20.5163 60.7612 20.9063 60.6589 21.196H59.5083C59.5637 20.9233 59.6362 20.5632 59.7257 20.1158C59.8152 19.6683 59.9047 19.1676 59.9941 18.6136C60.0879 18.0639 60.1646 17.5014 60.2243 16.9261L60.301 16.2102H61.9373ZM70.7663 21.6818C70.5107 21.6818 70.2827 21.6605 70.0824 21.6179C69.8821 21.5795 69.7436 21.5412 69.6669 21.5028L70.0504 20.1733C70.4169 20.267 70.7408 20.3011 71.022 20.2756C71.3033 20.25 71.5526 20.1243 71.7699 19.8984C71.9915 19.6768 72.1939 19.3168 72.3771 18.8182L72.6584 18.0511L69.0277 8.18182H70.6641L73.3743 16.0057H73.4766L76.1868 8.18182H77.8232L73.6555 19.4318C73.468 19.9389 73.2358 20.3587 72.9588 20.6911C72.6818 21.0277 72.3601 21.277 71.9936 21.4389C71.6314 21.6009 71.2223 21.6818 70.7663 21.6818ZM81.449 16.2102L81.3468 16.9006C81.2743 17.3864 81.1635 17.9062 81.0144 18.4602C80.8695 19.0142 80.7182 19.5362 80.5605 20.0263C80.4029 20.5163 80.2729 20.9063 80.1706 21.196H79.0201C79.0755 20.9233 79.1479 20.5632 79.2374 20.1158C79.3269 19.6683 79.4164 19.1676 79.5059 18.6136C79.5996 18.0639 79.6763 17.5014 79.736 16.9261L79.8127 16.2102H81.449ZM89.0252 18V16.8494L94.5991 9.69034V9.58807H89.2042V8.18182H96.5423V9.38352L91.1218 16.4915V16.5938H96.7212V18H89.0252ZM102.266 12.4773C102.266 14.0881 102.055 15.571 101.634 16.9261C101.216 18.277 100.617 19.5213 99.8374 20.6591H98.5078C98.8146 20.2372 99.1001 19.7173 99.3643 19.0994C99.6328 18.4858 99.8672 17.8125 100.067 17.0795C100.268 16.3423 100.423 15.5817 100.534 14.7976C100.649 14.0092 100.707 13.2358 100.707 12.4773C100.707 11.4631 100.609 10.4339 100.413 9.38991C100.217 8.34588 99.9524 7.37642 99.62 6.48153C99.2876 5.58665 98.9169 4.85795 98.5078 4.29545H99.8374C100.617 5.43324 101.216 6.67969 101.634 8.0348C102.055 9.38565 102.266 10.8665 102.266 12.4773Z" fill="black"/>
<path d="M139.796 103.949C139.666 103.705 139.364 103.612 139.12 103.742L135.147 105.855C134.903 105.984 134.81 106.287 134.94 106.531C135.07 106.775 135.372 106.867 135.616 106.737L139.148 104.86L141.026 108.391C141.155 108.635 141.458 108.728 141.702 108.598C141.946 108.468 142.038 108.166 141.909 107.922L139.796 103.949ZM138.876 104.037L138.615 104.894L139.571 105.186L139.833 104.33L138.876 104.037Z" fill="black"/>
</svg>
